# xmcd CD database file
#
# Track frame offsets:
#	150
#	3091
#	27930
#	51765
#	73739
#	93607
#	116184
#	130634
#	152334
#	174212
#	197848
#
# Disc length: 2885 seconds
#
# Revision: 0
# Processed by: cddbd v1.5.1PL0 Copyright (c) Steve Scherf et al.
# Submitted via: CDex 1.51
#
DISCID=860b430b
DTITLE=ネーネーズ - 美らうた
DYEAR=1900
DGENRE=J-POP
TTITLE0=ばんがむり
TTITLE1=美童エイサー
TTITLE2=Ne-Ran
TTITLE3=スンサーミー?今帰仁ぬ城
TTITLE4=十五夜
TTITLE5=庭のガジュマル
TTITLE6=狩俣ぬイサミガ
TTITLE7=話やびら
TTITLE8=それはテイハン
TTITLE9=万国津梁の詩
TTITLE10=嘉手久?唐船どーいー
EXTD=
EXTT0=
EXTT1=
EXTT2=
EXTT3=
EXTT4=
EXTT5=
EXTT6=
EXTT7=
EXTT8=
EXTT9=
EXTT10=
PLAYORDER=
